<svg xmlns="http://www.w3.org/2000/svg" viewBox="0 0 47.04 47.04"><defs><style>.cls-1{fill:#231f20;}</style></defs><g id="Layer_2" data-name="Layer 2"><g id="Objects"><path class="cls-1" d="M23.52,4.24c6.28,0,7,0,9.5.13a13.2,13.2,0,0,1,4.37.81A7.43,7.43,0,0,1,40.1,6.94a7.28,7.28,0,0,1,1.75,2.71A12.68,12.68,0,0,1,42.66,14c.12,2.48.14,3.22.14,9.5s0,7-.14,9.5a12.68,12.68,0,0,1-.81,4.37,7.67,7.67,0,0,1-4.46,4.46,12.68,12.68,0,0,1-4.37.81c-2.48.12-3.22.14-9.5.14s-7,0-9.5-.14a12.68,12.68,0,0,1-4.37-.81A7.28,7.28,0,0,1,6.94,40.1a7.43,7.43,0,0,1-1.76-2.71A13.2,13.2,0,0,1,4.37,33c-.11-2.48-.13-3.22-.13-9.5s0-7,.13-9.5a13.2,13.2,0,0,1,.81-4.37A7.77,7.77,0,0,1,9.65,5.18,13.2,13.2,0,0,1,14,4.37c2.48-.11,3.22-.13,9.5-.13m0-4.24c-6.39,0-7.19,0-9.7.14A17.51,17.51,0,0,0,8.11,1.23,11.69,11.69,0,0,0,4,4,11.69,11.69,0,0,0,1.23,8.11,17.51,17.51,0,0,0,.14,13.82C0,16.33,0,17.13,0,23.52s0,7.19.14,9.7a17.51,17.51,0,0,0,1.09,5.71A11.69,11.69,0,0,0,4,43.09,11.53,11.53,0,0,0,8.11,45.8a17.22,17.22,0,0,0,5.71,1.1c2.51.11,3.31.14,9.7.14s7.19,0,9.7-.14a17.22,17.22,0,0,0,5.71-1.1,12,12,0,0,0,6.87-6.87,17.22,17.22,0,0,0,1.1-5.71c.11-2.51.14-3.31.14-9.7s0-7.19-.14-9.7a17.22,17.22,0,0,0-1.1-5.71A11.53,11.53,0,0,0,43.09,4a11.69,11.69,0,0,0-4.16-2.72A17.51,17.51,0,0,0,33.22.14C30.71,0,29.91,0,23.52,0"/><path class="cls-1" d="M23.52,11.44A12.08,12.08,0,1,0,35.6,23.52,12.08,12.08,0,0,0,23.52,11.44m0,19.92a7.84,7.84,0,1,1,7.84-7.84,7.84,7.84,0,0,1-7.84,7.84"/><path class="cls-1" d="M38.9,11a2.83,2.83,0,1,1-2.83-2.82A2.83,2.83,0,0,1,38.9,11"/></g></g></svg>