<svg xmlns="http://www.w3.org/2000/svg" viewBox="0 0 63.88 63.88"><defs><style>.cls-1{fill:#231f20;fill-rule:evenodd;}</style></defs><g id="Layer_2" data-name="Layer 2"><g id="Objects"><path class="cls-1" d="M47.1,49.89a50.77,50.77,0,0,1-6.45,12.83c.35-.1.69-.22,1-.33h0l.1,0q.78-.26,1.53-.54l.45-.17c.41-.17.83-.34,1.23-.52l.8-.37.86-.42c.39-.2.77-.42,1.15-.63l.5-.29c.46-.27.91-.56,1.35-.85l.3-.2c.42-.28.82-.58,1.22-.88.15-.11.3-.21.44-.33l.6-.49a31.31,31.31,0,0,0,2.36-2.1,32.4,32.4,0,0,0,3.49-4.2c.11-.15.23-.29.33-.44h0l0,0Z"/><path class="cls-1" d="M25.89,63.35a29.75,29.75,0,0,0,4.85.53v-14H18.56A46.28,46.28,0,0,0,25.89,63.35Z"/><path class="cls-1" d="M13.17,33.15H0A31.61,31.61,0,0,0,4,47.56H15.3A57.69,57.69,0,0,1,13.17,33.15Z"/><path class="cls-1" d="M33.18,30.74H48.34A54.3,54.3,0,0,0,46.1,16.32h-.73v0H33.18v0h0V30.74Z"/><path class="cls-1" d="M15.54,30.74h15.2V16.29h-13A54.72,54.72,0,0,0,15.54,30.74Z"/><path class="cls-1" d="M15.33,16.29H4A31.63,31.63,0,0,0,0,30.74H13.17A56.4,56.4,0,0,1,15.33,16.29Z"/><path class="cls-1" d="M33.18,49.89v14a27,27,0,0,0,3.93-.39,46.06,46.06,0,0,0,7.47-13.6Z"/><path class="cls-1" d="M5.49,49.89A31.82,31.82,0,0,0,22.31,62.43,49.9,49.9,0,0,1,16,49.89Z"/><path class="cls-1" d="M16.78,14A50.7,50.7,0,0,1,23.23,1.17c-.35.09-.68.21-1,.32h0l-.1,0c-.52.16-1,.34-1.53.53l-.45.18q-.61.24-1.23.51l-.8.37-.86.43c-.39.2-.77.41-1.15.63l-.5.28c-.46.27-.9.56-1.35.85l-.3.2c-.42.28-.82.58-1.22.89l-.44.32-.6.49c-.82.67-1.61,1.36-2.36,2.1a33.8,33.8,0,0,0-3.49,4.2c-.1.15-.23.29-.33.44h0l0,0Z"/><path class="cls-1" d="M38,.53A32.13,32.13,0,0,0,33.14,0V14H45.33A46.54,46.54,0,0,0,38,.53Z"/><path class="cls-1" d="M50.71,30.74H63.88a31.68,31.68,0,0,0-4-14.42H48.58A57.84,57.84,0,0,1,50.71,30.74Z"/><path class="cls-1" d="M30.7,33.14H15.54a54.29,54.29,0,0,0,2.24,14.41h.73v0H30.7v0h0V33.15h0Z"/><path class="cls-1" d="M48.34,33.14H33.14V47.59h13A54.72,54.72,0,0,0,48.34,33.14Z"/><path class="cls-1" d="M48.55,47.59H59.84a31.6,31.6,0,0,0,4-14.45H50.71A56.4,56.4,0,0,1,48.55,47.59Z"/><path class="cls-1" d="M30.7,14V0a30.06,30.06,0,0,0-3.93.39A46.29,46.29,0,0,0,19.3,14Z"/><path class="cls-1" d="M58.39,14a32.31,32.31,0,0,0-3.86-4.68,31.85,31.85,0,0,0-13-7.86A49.9,49.9,0,0,1,47.84,14Z"/></g></g></svg>